<svg width="506" height="120" viewBox="0 0 506 120" fill="none" xmlns="http://www.w3.org/2000/svg">
<mask id="mask0_14_122" style="mask-type:alpha" maskUnits="userSpaceOnUse" x="0" y="0" width="506" height="120">
<rect width="506" height="120" fill="#D9D9D9"/>
</mask>
<g mask="url(#mask0_14_122)">
<path d="M61.902 94.9824H77.9964L48.6677 11.6068H30.0118L0.68302 94.9824H16.7775L23.6508 74.448H54.986L61.902 94.9824ZM27.7491 62.2811L39.0196 28.7259H39.6599L50.9304 62.2811H27.7491ZM93.9202 58.3535V94.9824H79.1918V32.4827H93.2799V43.1128H94.0056C95.4571 39.6121 97.7624 36.8372 100.922 34.788C104.081 32.7389 108.008 31.7143 112.662 31.7143C116.973 31.7143 120.73 32.6535 123.975 34.4892C127.177 36.3249 129.695 39.0145 131.446 42.5151C133.239 46.0158 134.092 50.2422 134.05 55.237V94.9824H119.321V57.457C119.321 53.2733 118.254 50.0287 116.077 47.638C113.9 45.29 110.954 44.0947 107.154 44.0947C104.593 44.0947 102.288 44.6497 100.281 45.8023C98.2747 46.9123 96.7378 48.5346 95.5852 50.6691C94.5179 52.761 93.9202 55.3224 93.9202 58.3535ZM166.538 119.701C161.244 119.701 156.719 118.975 152.919 117.566C149.12 116.157 146.089 114.236 143.783 111.845C141.478 109.455 139.856 106.808 139.002 103.905L152.279 100.703C152.877 101.941 153.73 103.136 154.883 104.332C156.036 105.527 157.573 106.552 159.494 107.363C161.415 108.174 163.891 108.558 166.836 108.558C171.02 108.558 174.478 107.534 177.21 105.527C179.943 103.521 181.309 100.191 181.309 95.5801V83.7547H180.583C179.815 85.2915 178.705 86.8284 177.253 88.4507C175.802 90.0729 173.881 91.3963 171.533 92.4636C169.142 93.5309 166.196 94.0859 162.61 94.0859C157.829 94.0859 153.474 92.9332 149.547 90.6706C145.662 88.408 142.545 84.9927 140.283 80.5101C137.977 75.9849 136.825 70.3497 136.825 63.5191C136.825 56.6458 137.977 50.8399 140.283 46.1012C142.588 41.3625 145.662 37.7764 149.589 35.3003C153.517 32.8243 157.871 31.6289 162.653 31.6289C166.324 31.6289 169.355 32.2266 171.703 33.4646C174.094 34.7027 175.972 36.1968 177.381 37.9045C178.79 39.6121 179.857 41.2344 180.583 42.7713H181.394V32.44H195.909V95.9643C195.909 101.301 194.628 105.741 192.067 109.241C189.505 112.742 186.047 115.346 181.608 117.096C177.168 118.847 172.13 119.701 166.538 119.701ZM166.666 82.5166C169.782 82.5166 172.429 81.7482 174.649 80.254C176.826 78.7171 178.534 76.5399 179.644 73.7223C180.796 70.862 181.351 67.4467 181.351 63.4764C181.351 59.5488 180.796 56.0909 179.644 53.1452C178.534 50.1995 176.869 47.8942 174.692 46.2292C172.514 44.607 169.825 43.7532 166.666 43.7532C163.379 43.7532 160.646 44.607 158.426 46.3146C156.249 48.0223 154.584 50.3703 153.474 53.3159C152.364 56.3043 151.809 59.6769 151.809 63.4337C151.809 67.2759 152.364 70.6058 153.517 73.4661C154.627 76.3264 156.292 78.5463 158.512 80.1259C160.689 81.7055 163.421 82.5166 166.666 82.5166ZM240.521 68.6847V32.4827H255.25V94.9824H240.948V83.8827H240.308C238.899 87.3834 236.594 90.2437 233.349 92.4636C230.147 94.6836 226.177 95.7935 221.481 95.7935C217.383 95.7935 213.754 94.897 210.637 93.0613C207.521 91.2256 205.045 88.5787 203.295 85.0354C201.544 81.5347 200.648 77.2656 200.648 72.2708V32.4827H215.419V70.0081C215.419 73.9784 216.486 77.1375 218.663 79.4429C220.841 81.7909 223.701 82.9435 227.202 82.9435C229.379 82.9435 231.471 82.4312 233.52 81.364C235.569 80.2967 237.234 78.7171 238.557 76.6253C239.881 74.4907 240.521 71.8439 240.521 68.6847ZM274.802 11.6068V94.9824H260.074V11.6068H274.802ZM298.197 96.2204C294.227 96.2204 290.683 95.4947 287.524 94.0859C284.365 92.6771 281.846 90.5425 280.053 87.7676C278.217 84.9927 277.321 81.5347 277.321 77.4364C277.321 73.893 277.961 70.99 279.285 68.6847C280.608 66.3794 282.358 64.5437 284.621 63.1349C286.884 61.7688 289.402 60.7015 292.263 59.9757C295.08 59.25 298.026 58.7377 301.057 58.3962C304.728 58.012 307.674 57.6704 309.98 57.3716C312.242 57.0728 313.907 56.5605 314.974 55.9201C315.999 55.237 316.554 54.2125 316.554 52.8037V52.5475C316.554 49.4738 315.657 47.1257 313.822 45.4181C311.986 43.7532 309.382 42.8993 305.967 42.8993C302.338 42.8993 299.52 43.6678 297.386 45.2473C295.294 46.8269 293.885 48.6626 293.117 50.8399L279.37 48.8761C280.437 45.0766 282.23 41.9174 284.749 39.3133C287.225 36.7518 290.299 34.8307 293.885 33.55C297.514 32.2693 301.484 31.6289 305.838 31.6289C308.87 31.6289 311.858 31.9704 314.846 32.6962C317.835 33.4219 320.567 34.5746 323.043 36.1968C325.519 37.8191 327.483 39.9963 329.02 42.7713C330.514 45.5462 331.282 49.0042 331.282 53.1452V94.9824H317.109V86.4015H316.639C315.743 88.1518 314.505 89.7741 312.883 91.2683C311.26 92.7625 309.254 94.0005 306.82 94.897C304.302 95.7935 301.484 96.2204 298.197 96.2204ZM302.039 85.4196C304.985 85.4196 307.546 84.8219 309.723 83.6693C311.901 82.4739 313.566 80.937 314.761 78.9733C315.956 77.0095 316.511 74.8749 316.511 72.5696V65.1841C316.042 65.5683 315.273 65.9098 314.163 66.2513C313.053 66.5929 311.858 66.849 310.492 67.1051C309.126 67.3613 307.802 67.5748 306.479 67.7455C305.155 67.9163 304.003 68.087 303.021 68.2151C300.844 68.514 298.837 68.9836 297.13 69.6666C295.379 70.3497 294.013 71.2889 293.031 72.4842C292.007 73.6796 291.537 75.2591 291.537 77.1375C291.537 79.8698 292.519 81.9189 294.525 83.2851C296.446 84.7365 298.965 85.4196 302.039 85.4196ZM335.765 94.9824V32.4827H350.066V42.8993H350.707C351.859 39.2706 353.823 36.4957 356.598 34.5319C359.373 32.5681 362.575 31.5862 366.161 31.5862C366.972 31.5862 367.911 31.6289 368.893 31.6716C369.918 31.757 370.772 31.8424 371.455 31.9704V45.5035C370.814 45.29 369.832 45.0766 368.509 44.9058C367.185 44.735 365.862 44.6497 364.624 44.6497C361.934 44.6497 359.544 45.2473 357.409 46.4C355.275 47.5527 353.61 49.1322 352.372 51.1814C351.134 53.2306 350.536 55.5786 350.536 58.2254V94.9824H335.765ZM-25.017 15.449L-29.2007 81.1505L-69.2022 -5L-25.017 15.449ZM-52.7235 100.404L-82.9487 117.651L-113.174 100.404L-107.026 85.505H-58.871L-52.7235 100.404ZM-82.9487 27.7013L-67.1103 66.2086H-98.7871L-82.9487 27.7013ZM-136.739 81.1505L-140.88 15.449L-96.6952 -5L-136.739 81.1505Z" fill="#0F0F11"/>
</g>
<rect x="386" width="120" height="120" rx="25" fill="url(#paint0_linear_14_122)"/>
<path d="M451.932 28.0685H459.967V69.2893C459.967 73.8648 458.949 77.673 456.912 80.714C454.876 83.755 452.169 86.0427 448.794 87.5771C445.446 89.0837 441.805 89.837 437.871 89.837C433.742 89.837 430.004 89.0837 426.656 87.5771C423.336 86.0427 420.699 83.755 418.746 80.714C416.821 77.673 415.859 73.8648 415.859 69.2893V28.0685H423.852V69.2893C423.852 72.4698 424.438 75.0923 425.61 77.1569C426.781 79.2214 428.413 80.7558 430.506 81.7602C432.626 82.7646 435.081 83.2667 437.871 83.2667C440.689 83.2667 443.144 82.7646 445.236 81.7602C447.357 80.7558 449.003 79.2214 450.175 77.1569C451.346 75.0923 451.932 72.4698 451.932 69.2893V28.0685ZM474.454 28.0685V89H466.377V28.0685H474.454Z" fill="white"/>
<defs>
<linearGradient id="paint0_linear_14_122" x1="386" y1="117.09" x2="506" y2="2.91018" gradientUnits="userSpaceOnUse">
<stop stop-color="#EB002D"/>
<stop offset="1" stop-color="#A139FF"/>
</linearGradient>
</defs>
</svg>
