<svg width="299" height="299" viewBox="0 0 299 299" fill="none" xmlns="http://www.w3.org/2000/svg">
<rect x="11.5" y="11.5" width="276" height="276" rx="57.5" fill="url(#paint0_linear_14_126)"/>
<path d="M163.144 77.3575H181.625V172.165C181.625 182.689 179.282 191.448 174.598 198.442C169.914 205.436 163.69 210.698 155.925 214.227C148.225 217.693 139.851 219.425 130.804 219.425C121.307 219.425 112.708 217.693 105.008 214.227C97.3722 210.698 91.3083 205.436 86.8166 198.442C82.389 191.448 80.1752 182.689 80.1752 172.165V77.3575H98.5593V172.165C98.5593 179.481 99.9068 185.512 102.602 190.261C105.297 195.009 109.051 198.538 113.863 200.848C118.74 203.158 124.387 204.314 130.804 204.314C137.285 204.314 142.931 203.158 147.744 200.848C152.621 198.538 156.407 195.009 159.102 190.261C161.797 185.512 163.144 179.481 163.144 172.165V77.3575ZM214.943 77.3575V217.5H196.366V77.3575H214.943Z" fill="white"/>
<defs>
<linearGradient id="paint0_linear_14_126" x1="11.5" y1="280.807" x2="287.5" y2="18.1934" gradientUnits="userSpaceOnUse">
<stop stop-color="#EB002D"/>
<stop offset="1" stop-color="#A139FF"/>
</linearGradient>
</defs>
</svg>
